/* XPM */
static char *frog_Sheet[] = {
/* columns rows colors chars-per-pixel */
"400 45 6 1 ",
"  c black",
". c #27E027",
"X c #00916B",
"o c #04CA6C",
"O c gray93",
"+ c None",
/* pixels */
"++++++++++++++++++++++++++++++++++++++++++++++++++++++++++++++++++++++++++++++++++++++++++++++++++++++++++++++++++++++++++++++++++++++++++++++++++++++++++++++++++++++++++++++++++++++++++++++++++++++++++++++++++++++++++++++++++++++++++++++++++++++++++++++++++++++++++++++++++++++++++++++++++++++++++++++++++++++++++++++++++++++++++++++++++++++++++++++++++++++++++++++++++++++++++++++++++++++++++++++++",
"++++++++++++++++++++++++++++++++++++++++++++++++++++++++++++++++++++++++++++++++++++++++++++++++++++++++++++++++++++++++++++++++++++++++++++++++++++++++++++++++++++++++++++++++++++++++++++++++++++++++++++++++++++++++++++++++++++++++++++++++++++++++++++++++++++++++++++++++++++++++++++++++++++++++++++++++++++++++++++++++++++++++++++++++++++++++++++++++++++++++++++++++++++++++++++++++++++++++++++++++",
"++++++++++++++++++++++++++++++++++++++++++++++++++++++++++++++++++++++++++++++++++++++++++++++++++++++++++++++++++++++++++++++++++++++++++++++++++++++++++++++++++++++++++++++++++++++++++++++++++++++++++++++++++++++++++++++++++++++++++++++++++++++++++++++++++++++++++++++++++++++++++++++++++++++++++++++++++++++++++++++++++++++++++++++++++++++++++++++++++++++++++++++++++++++++++++++++++++++++++++++++",
"+++++++++++++++++++++++++++++++++++++++++++++++++++++++++++++++++++++++++++++++++++++++++++++++++++++++++++++++++++++++++++++++++++++++++++++++++++++++++++++++++++++++++++++++++++++++++++++++++++++++++++++++++++++++++++++++++++++++++++++++++++++++++++++++++++++++++++++++++++++++++++   ++++++++++++++++++++++++++++++++++++++++++++++++++++++++++++++++++++++++++++++++++++++++++++++++++++++++++++++++++",
"++++++++++++++++++++++++++++++++++++++++++++++++++++++++++++++++++++++++++++++++++++++++++++++++++++++++++++++++++++++++++++++++++++++++++++++++++++++++++++++++++++++++++++++++++++++++++++++++++++++++++++++++++++++++++++++++++++++++++++++++++++++++++++++++++++++++++++++++++++++++++ XXX ++++++  +++++++++++++++++++++++++++++++++++++++++++++++++++++++++++++++++++++++++++++++++++++++++++++++++++++++++",
"+++++++++++++++++++++++++++++++++++++++++++++++++++++++++++++++++++++++++++++++++++++++++++++++++++++++++++++++++++++++++++++++++++++++++++++++++++++++++++++++++++++++++++++++++++++++++++++++++++++++++++++++++++++++++++++++++++++++++++++++++++++++++++++++++++++++++++++++++++++++++ XXXX +++++ oo ++++++++++++++++++++++++++++++++++++++++++++++++++++++++++++++++++++++++++++++++++++++++++++++++++++++++",
"++++++++++++++++++++++++++++++++++++++++++++++++++++++++++++++++++++++++++++++++++++++++++++++++++++++++++++++++++++++++++++++++++++++++++++++++++++++++++++++++++++++++++++++++++++++++++++++++++++++++++++++++++++++++++++++++++++++++++++++++++++++++++++++++++++++++++++++++++++++++ XXXXX +++  ooo ++++++++++++++++++++++++++++++++++++++++++++++++++++++++++++++++++++++++++++++++++++++++++++++++++++++++",
"+++++++++++++++++++++++++++++++++++++++++++++++++++++++++++++++++++++++++++++++++++++++++++++++++++++++++++++++++++++++++++++++++++++++++++++++++++++++++++++++++++++++++++++++++++++++++++++++++++++++++++++++++++++++++++++++++++++++++++++++++++++++++++++++++++++++++++++++++++++++ XXXXX +++ ooooo ++++++++++++++++++++++++++++++++++++++++++++++++++++++++++++++++++++++++++++++++++++++++++++++++++++++++",
"++++++++++++++++++++++++++++++++++++++++++++++++++++++++++++++++++++++++++++++++++++++++++++++++++++++++++++++++++++++++++++++++++++++++++++++++++++++++++++++++++++++++++++++++++++++++++++++++++++++++++++++++++++++++++++++++++++++++++++++++++++++++++++++++++++++++++++++++++++++ XXXXX ++  ooooo +++++++++++++++++++++++++++++++++++++++++++++++++++++++++++++++++++++++++++++++++++++++++++++++++++++++++",
"++++++++++++++++++++++++++++++++++++++++++++++++++++++++++++++++++++++++++++++++++++++++++++++++++++++++++++++++++++++++++++++++++++++++++++++++++++++++++++++++++++++++++++++++++++++++++++++++++++++++++++++++++++++++++++++++++++++++++++++++++++++++++++++++++++++++++++++++++++++ XXXXX + oooooo ++++++++++++++++++++++++++++++++++++++++++++++++++++++++++++++++++++++++++++++++++++++++++++++++++++++++++",
"+++++++++++++++++++++++++++++++++++++++++++++++++++++++++++++++++++++++++++++++++++++++++++++++++++++++++++++++++++++++++++++++++++++++++++++++++++++++++++++++++   +++++  +++++++++++++++++++++++++++++++++++++++++++++++++++++++++++++++++++++++++++++++++++++++++++++++++++++++++++  XXXX + ooooo +++++++++++++++++++++++++++++++++++++++++++++++++++++++++++++++++++++++++++++++++++++++++++++++++++++++++++",
"++++++++++++++++++++++++++++++++++++++++++++++++++++++++++++++++++++++++++++++++++++++++++++++++++++++++++++++++++++++++++++++++++++++++++++++++++++++++++++++++ ooo +++ oo ++++++++++++++++++++++++++++++++++++++   +++++  +++++++++++++++++++++++++++++++++++++++++++++++++++++++   XXXXX +++ ooo ++++++++++++++++++++++++++++++++++++++++++++++++++++++++++++++++++++++++++++++++++++++++++++++++++++++++++++",
"+++++++++++++++++++++++++++++++++++++++++++++++++++++++++++++++++++++++++++++++++++++++++++++++++++++++++++++++++++++++++++++++++++++++++++++++++++++++++++++++ OOOo ++ OOOo ++++++++++++++++++++++++++++++++++++ ooo +++ oo ++++++++++++++++++++++++++++++++++++++   +++++  ++++  ooooooXX ++  oooo +++++++++++++++++++++++++++++++++++++++++++++++++++++++++++++++++++++++++++++++++++++++++++++++++++++++++++",
"+++++++++++++++++++++++++++++++++++++++++++++++++++++++++++++++++++++++++++++++++++++++++++++++++++++++++++++++++++++++++++++++++++++++++++++++++++++++++++++++    oo      oo ++++++++++++++++++++++++++++++++++ OOOo ++ OOOo ++++++++++++++++++++++++++++++++++++ ooo +++ oo ++ ooooooooo ++ oooooo +++++++++++++++++++++++++++++++++++++++++++++++++++++++++++++++++++++++++++++++++++++++++++++++++++++++++++",
"++++++++++++++++++++++++++++++++++++++++++++++++++++++++++++++++++++++++++++++++++++++++++++++++++++++++++++++++   +++++  +++++++++++++++++++++++++++++++++++++ OOOoooooOOOoo ++++++++++++++++++++++++++++++++++    oo      oo ++++++++++++++++++++++++++++++++++ OOOo ++ OOOo  ooooooooooo  ooooooo +++++++++++++++++++++++++++++++++++++++    ++++++++++++++++++++++++++++++++++++++++++++++++++++++++++++++++",
"+++++++++++++++++++++++++++++++++++++++++++++++++++++++++++++++++++++++++++++++++++++++++++++++++++++++++++++++ ooo +++ oo +++++++++++++++++++++++++++++++++++ oooooooooooooo ++++++++++++++++++++++++++++++++++ OOOoooooOOOoo ++++++++++++++++++++++++++++++++++    oo      oooooooooooooooooooooo +++++++++++++++++++++++++++++++++++++++ XXXX +++++   +++++++++++++++++++++++++++++++++++++++++++++++++++++++",
"++++++++++++++++++++++++++++++++++++++++++++++++++++++++++++++++++++++++++++++++++++++++++++++++++++++++++++++ OOOo ++ OOOo +++++++++++++++++++++++++++++++++ oooooooooooooooo ++++++++++++++++++++++++++++++++ oooooooooooooo ++++++++++++++++++++++++++++++++++ OOOoooooOOOoooooooooooooooooooooo ++++++++++++++++++++++++++++++++++     XXXXX ++++ ooo ++++++++++++++++++++++++++++++++++++++++++++++++++++++",
"++++++++++++++++++++++++++++++++++++++++++++++++++++++++++++++++++++++++++++++++++++++++++++++++++++++++++++++    oo      oo +++++++++++++++++++++++++++++++ oooooooooooooooooo ++++++++++++++++++++++++++++++ oooooooooooooooo  +++++++++++++++++++++++++++++++ ooooooooooooooooooooooooooooooooo +++++++++++++++++++   +++++  ++++  ooooooXXXXX ++ oooo ++++++++++++++++++++++++++++++++++++++++++++++++++++++",
"++++++++++++++++++++++++++++++++++++++++++++++++++++++++++++++++++++++++++++++++++++++++++++++++++++++++++++++ OOOoooooOOOoo +++++++++++++++++++++++++++++++ .............oooooo  +++++++++++++++++++++++++++ ooooooooooooooooooo  ++++++++++++++++++++++++++++ ooooooooooooooooooooooooooooooooo +++++++++++++++++++ ooo +++ oo ++ oooooooooXXXX   ooooo ++++++++++++++++++++++++++++++++++++++++++++++++++++++",
"+++++++++++++++++++++++++++++++++++++++++++++++++++++++++++++++++++++++++++++++++++++++++++++++++++++++++++++ oooooooooooooo ++++++++++++++++++++++++++++++++ .............ooooooo ++++++++++++++++++++++++++ .............oooooooo   ++  ++++++++++++++++++++ ooooooooooooooooooooooooooooooooo +++++++++++++++++++ OOOo ++ OOOo  oooooooooooXXXooooooooo ++++++++++++++++++++++++++++       ++++++++++++++++++",
"++++++++++++++++++++++++++++++++++++++++++++++++++++++++++++++++++++++++++++++++++++++++++++++++++++++++++++ oooooooooooooooo +++++++++++++++++++++++++++++++ .............oooooooo ++++++++++++++++++++++++++ .............oooooooooo  XX +++++ +++++++++++++ .............ooooooooooooooooooo ++++++++++++++++++++    oo      ooooooooooooooooooooooooooo +++++++++++++   +++++  +++ ooooooo  ++++++++++++++++",
"++++++++++++++++   +++++  ++++++++++++++++++++++++++++++++++++++++++   +++++  +++++++++++++++++++++++++++++ oooooooooooooooooo +++++++++++++++++++++++++       ............ooooooooo +++++++++++++++++++++++++ .............ooooooooooooXXX ++  o +++++++++++++ .............ooooooooooooooooo +++++++++++++++++++++ OOOoooooOOOoooooooooooooooooooooo oooo ++++++++++++ ooo +++ oo + oooooooooo +++++++++++++++",
"+++++++++++++++ ooo +++ oo ++++++++++++++++++++++++++++++++++++++++ ooo +++ oo ++++++++++++++++++++++++++++ .............oooooo +++++++++++++++++++++++ XXXXXXXoooooooooooooooooooooo +++++++++++++++++++++++++ ............oooooooooooooXXX  oooo ++++++++++++ ..............oooooooooooooooo ++++++++++++++++++++ oooooooooooooooooooooooooooooooooo   ooo ++++++++++ OOOo ++ OOOo oooooooooooo ++++++++++++++",
"++++++++++++++ OOOo ++ OOOo ++++++++++++++++++++++++++++++++++++++ OOOo ++ OOOo ++++++++++++++++++++++++++++ .............oooooo +++++++++++++++++++++ XXXXXXooooooooooooooooooooooooo +++++++++++++++++++++++++  .........oooooooooooooooXXooooooo ++++++++++++ .............ooooooooooooo.. ++++++++++++++++++++ ooooooooooooooooooooooooooooooooooo ++ oo ++++++++++    oo      ooooooooooooooo +++++++++++++",
"++++++++++++++    oo      oo +++++++++++++++++++++++++++++++++++++    oo      oo +++++++++++++++++++++++++++ .............ooooooo ++++++++++++++++++++ XXXXoooooooooooooooooooooooooooo ++++++++++++++++++++++   XXX.....ooooooooooooooooooooooooooo ++++++++++++  ...........oooooooooooo.. ++++++++++++++++++++ ooooooooooooooooooooooooooooooooooo ++++  +++++++++++ OOOoooooOOOooooooooooooooo +++++++++++++",
"++++++++++++++ OOOoooooOOOoo +++++++++++++++++++++++++++++++++++++ OOOoooooOOOoo ++++++++++++++++++++++++++++ ............oooooooo +++++++++++++++++++ XX  ooooooooooooooooooooooooooooo ++++++++++++++++++   XXXXXXX.ooooooooooooooooooooooooooooooo +++++++++++++ ..........ooooooooooo.. +++++++++++++++++++++ .............oooooooooooooooooooooo ++++++++++++++++ ooooooooooooooooooooooooooo   +++++++++++",
"+++++++++++++ oooooooooooooo ++++++++++++++++++++++++++++++++++++ oooooooooooooo +++++++++++++++++++++++++++++  ..........ooooooooo +++++++++++++++++++  + ooo  XXXXX.....oooooooooooooo +++++++++++++++++ XXXXXXXXXXooooooooooooooooooooooooooo oooo ++++++++++++++ X.......oooooooooo... +++++++++++++++++++++++ .............oooooooooooooooooooo ++++++++++++++++ oooooooooooooooooooooooooooo oo ++++++++++",
"++++++++++++ oooooooooooooooo ++++++++++++++++++++++++++++++++++ oooooooooooooooo ++++++++++++++++++++++++++++++  .......ooooooooooo ++++++++++++++++++++++   ++   XXX........ooooooooooo +++++++++++++++ XXXXXXXXXooooooooooooooooooooooooooooo  ooo +++++++++++++ XX.......oooooooo.... ++++++++++++++++++++++++ ..............oooooooooooooooooo ++++++++++++++++ oooooooooooooooooooooooooooooooo ++++++++++",
"+++++++++++ oooooooooooooooooo ++++++++++++++++++++++++++++++++ oooooooooooooooooo  ++++++++++++++++++++++++++++++ .....ooooooooooooo +++++++++++++++++++++++++++++     .......oooooooooo ++++++++++++++ XXXXXXXX ooooooooo....ooooooooooooooooo  oooo +++++++++++ XXXX.....ooooooo....  ++++++++++++++++++++++++++ .............ooooooooooooo..   +++++++++++++++++ .............ooooooooooooooooooo ++++++++++",
"+++++++++++ .............oooooo +++++++++++++++++++++++++++++++ .............ooooooo   ++++++++++++++++++++++++++  X...ooooooooooooooo +++++++++++++++++++++++++++++++++ .......ooooooooo ++++++++++++++ XXXXX  ooooooooo  ......oooooooooooooo ++ ooo ++++++++++ XXXXXX    ooooo...   +++++++++++++++++++++++++++++  ..........ooooooooooooo.. +++++++++++++++++++++ .............ooooooooooooooooo +++++++++++",
"++++++++++++ .............oooooo  ++++++++++++++++++++++++++++++ .............ooooooooo  +++++++++++++++++++++++ XXX...oooooooooooooooo +++++++++++++++++++++++++++++++++ ........oooooooo +++++++++++++ XXX   oooooooo  ++   .....ooooooooooo ++++ o ++++++++++ XXXXXX ++ ooooo    ++++++++++++++++++++++++++++++++++ ..........ooooooooooo.. ++++++++++++++++++++++ .............ooooooooooooooooo +++++++++++",
"++++++++++++ .............oooooooo  ++++++++++++++++++++++++++++ .............ooooooooooo +++++++++++++++++++++ XXXXX.ooooo..ooooooooooo +++++++++++++++++++++++++++++++++  .......oooooooo +++++++++++++    oooooooo  +++++++           oooo ++++++ ++++++++++ XXXXXX ++ ooooo +++++++++++++++++++++++++++++++++++++++  ........ooooooooo... ++++++++++++++++++++++++ ............ooooooooooooooooo +++++++++++",
"+++++++++++++ ............oooooooooo ++++++++++++++++++++++++++++ ............oooooooooooo +++++++++++++++++++ XXXXooooooo....oooooooooo +++++++++++++++++++++++++++++++++++  .....ooooooooo  ++++++++++++++ oooooo  ++++++++++++++++++++    +++++++++++++++++ XXXXXX ++ ooooo +++++++++++++++++++++++++++++++++++++++++ .........oooooo.... ++++++++++++++++++++++++++  ..........oooooooooooooooo ++++++++++++",
"++++++++++++++  ..........ooooooooooo ++++++++++++++++++++++++++++  ..........oooooooooooo +++++++++++++++++++ XXXooooooo.....ooooooooooo ++++++++++++++++++++++++++++++++++++ X....oooooooooo ++++++++++++++ ooo  ++++++++++++++++++++++++++++++++++++++++++ XXXXXX ++ oooooo ++++++++++++++++++++++++++++++++++++++++++ ........oooooo..  +++++++++++++++++++++++++++++ .........oooooooooooooooo ++++++++++++",
"++++++++++++++++ .........oooooooooooo +++++++++++++++++++++++++++++ .........ooooooooooooo +++++++++++++++++ XXXXoooooo .....ooooooooooo +++++++++++++++++++++++++++++++++++++ XXXXXoooooooooo ++++++++++++++   ++++++++++++++++++++++++++++++++++++++++++++ XXXXX +++ ooooo ++++++++++++++++++++++++++++++++++++++++++++   .....ooooo   ++++++++++++++++++++++++++++++++  ........oooooo.oo.. ooo ++++++++++++",
"++++++++++++++++ XX......oooooooooooooo +++++++++++++++++++++++++++++ X......oooooooooooooo +++++++++++++++++ XXXoooo   + X....oooooooooo ++++++++++++++++++++++++++++++++++++++ XXXXXoooooooooo ++++++++++++++++++++++++++++++++++++++++++++++++++++++++++++ XXX  +++ ooooo +++++++++++++++++++++++++++++++++++++++++++++++ XXXX  oooo ++++++++++++++++++++++++++++++++++++ .......oooooo...   ooo ++++++++++++",
"++++++++++++++++ XX......oooooooooooooo ++++++++++++++++++++++++++++ XXX.....oooooooooooooo +++++++++++++++++ XXXooo ++++ XX...oooooooooo +++++++++++++++++++++++++++++++++++++++ XXXXXXoooooooo +++++++++++++++++++++++++++++++++++++++++++++++++++++++++++++   +++++ oooo ++++++++++++++++++++++++++++++++++++++++++++++++ XXXX  oooo +++++++++++++++++++++++++++++++++++++  ......oooooX  ++ ooo ++++++++++++",
"+++++++++++++++ XXXX....ooooooooooooooo +++++++++++++++++++++++++++ XXXX....ooooooooooooooo +++++++++++++++++ XX ooo ++++ XXXX..oooooooo +++++++++++++++++++++++++++++++++++++++++  XXXXXXXXXooo +++++++++++++++++++++++++++++++++++++++++++++++++++++++++++++++++++++ ooo ++++++++++++++++++++++++++++++++++++++++++++++++ XXXXX  ooo ++++++++++++++++++++++++++++++++++++++ XXXXX   oooo +++++ o +++++++++++++",
"+++++++++++++++ XXXXX...oooo.oooooooooo ++++++++++++++++++++++++++ XXXXX ..oooooooooooooooo ++++++++++++++++++   oo ++++++ XXXXXooooooooo ++++++++++++++++++++++++++++++++++++++++++   XXXXXXooo ++++++++++++++++++++++++++++++++++++++++++++++++++++++++++++++++++++++   +++++++++++++++++++++++++++++++++++++++++++++++++ XXXX + ooo ++++++++++++++++++++++++++++++++++++++ XXXXX + oooo ++++++ ++++++++++++++",
"++++++++++++++ XXXXX  .ooooo.oooooooooo +++++++++++++++++++++++++ XXXX  + oooooooooooooooo ++++++++++++++++++++++  ++++++++ XXXXXooooooooo ++++++++++++++++++++++++++++++++++++++++++++    XXoooo ++++++++++++++++++++++++++++++++++++++++++++++++++++++++++++++++++++++++++++++++++++++++++++++++++++++++++++++++++++++++ XXXXX  oooo +++++++++++++++++++++++++++++++++++++ XXXXX + ooooo +++++++++++++++++++++",
"++++++++++++++ XXXX ++ oooo...ooooooooo ++++++++++++++++++++++++ XXXX ++ ooooo..ooooooooo +++++++++++++++++++++++++++++++++  XXXXXXooooooo +++++++++++++++++++++++++++++++++++++++++++++++ XXXooo ++++++++++++++++++++++++++++++++++++++++++++++++++++++++++++++++++++++++++++++++++++++++++++++++++++++++++++++++++++++++ XXXX + oooo +++++++++++++++++++++++++++++++++++++ XXXX ++ oooo ++++++++++++++++++++++",
"+++++++++++++ XXXX ++ ooooo....ooooooo ++++++++++++++++++++++++ XXXX ++ ooooo....ooooooo ++++++++++++++++++++++++++++++++  XXXXXooooooooo ++++++++++++++++++++++++++++++++++++++++++++++++ XXXoooo ++++++++++++++++++++++++++++++++++++++++++++++++++++++++++++++++++++++++++++++++++++++++++++++++++++++++++++++++++++++ XXXX + ooooo ++++++++++++++++++++++++++++++++++++ XXXX ++ ooooo ++++++++++++++++++++++",
"++++++++++++ XXXX ++ oooooXXoooooooooo +++++++++++++++++++++++ XXXX ++ oooooXXoooooooooo +++++++++++++++++++++++++++++++ XXXXXooooooo    ++++++++++++++++++++++++++++++++++++++++++++++++++ XXXooo +++++++++++++++++++++++++++++++++++++++++++++++++++++++++++++++++++++++++++++++++++++++++++++++++++++++++++++++++++++ XXXX ++ oooo ++++++++++++++++++++++++++++++++++++ XXXX ++ ooooo +++++++++++++++++++++++",
"+++++++++++++    ++++                 +++++++++++++++++++++++++    ++++                 +++++++++++++++++++++++++++++++++            +++++++++++++++++++++++++++++++++++++++++++++++++++++++ X  o +++++++++++++++++++++++++++++++++++++++++++++++++++++++++++++++++++++++++++++++++++++++++++++++++++++++++++++++++++++++    ++++    ++++++++++++++++++++++++++++++++++++++    ++++     ++++++++++++++++++++++++",
"+++++++++++++++++++++++++++++++++++++++++++++++++++++++++++++++++++++++++++++++++++++++++++++++++++++++++++++++++++++++++++++++++++++++++++++++++++++++++++++++++++++++++++++++++++++++++++++ ++ +++++++++++++++++++++++++++++++++++++++++++++++++++++++++++++++++++++++++++++++++++++++++++++++++++++++++++++++++++++++++++++++++++++++++++++++++++++++++++++++++++++++++++++++++++++++++++++++++++++++++++++++"
};
