/* XPM */
static char *sapinho6_0[] = {
/* columns rows colors chars-per-pixel */
"44 44 6 1 ",
"  c black",
". c #27E027",
"X c #00916B",
"o c #04CA6C",
"O c gray93",
"+ c None",
/* pixels */
"++++++++++++++++++++++++++++++++++++++++++++",
"++++++++++++++++++++++++++++++++++++++++++++",
"++++++++++++++++++++++++++++++++++++++++++++",
"++++++++++++++++++++++++++++++++++++++++++++",
"++++++++++++++++++++++++++++++++++++++++++++",
"++++++++++++++++++++++++++++++++++++++++++++",
"++++++++++++++++++++++++++++++++++++++++++++",
"++++++++++++++++++++++++++++++++++++++++++++",
"++++++++++++++++++++++++++++++++++++++++++++",
"++++++++++++++++   +++++  ++++++++++++++++++",
"+++++++++++++++ ooo +++ oo +++++++++++++++++",
"++++++++++++++ OOOo ++ OOOo ++++++++++++++++",
"++++++++++++++    oo      oo +++++++++++++++",
"++++++++++++++ OOOoooooOOOoo +++++++++++++++",
"+++++++++++++ oooooooooooooo +++++++++++++++",
"++++++++++++ oooooooooooooooo ++++++++++++++",
"+++++++++++ oooooooooooooooooo +++++++++++++",
"+++++++++++ .............oooooo ++++++++++++",
"++++++++++++ .............oooooo +++++++++++",
"++++++++++++ .............ooooooo ++++++++++",
"+++++++++++++ ............oooooooo  ++++++++",
"++++++++++++++ ...........oooooooooo +++++++",
"++++++++++++++ ...........ooooooooooo ++++++",
"+++++++++++++++ ..........oooooooooooo +++++",
"+++++++++++++++ .........oooooooooooooo ++++",
"++++++++++++++++ ........oooooooooooooo ++++",
"+++++++++++++++ XX......ooooooooooooooo ++++",
"+++++++++++++++ XXX.....oooo.oooooooooo ++++",
"++++++++++++++ XXXXX...ooooo.oooooooooo ++++",
"++++++++++++++ XXXX   .oooo...ooooooooo ++++",
"+++++++++++++ XXXX ++ ooooo....ooooooo +++++",
"++++++++++++ XXXX ++ oooooXXoooooooooo +++++",
"+++++++++++++    ++++                 ++++++",
"++++++++++++++++++++++++++++++++++++++++++++",
"++++++++++++++++++++++++++++++++++++++++++++",
"++++++++++++++++++++++++++++++++++++++++++++",
"++++++++++++++++++++++++++++++++++++++++++++",
"++++++++++++++++++++++++++++++++++++++++++++",
"++++++++++++++++++++++++++++++++++++++++++++",
"++++++++++++++++++++++++++++++++++++++++++++",
"++++++++++++++++++++++++++++++++++++++++++++",
"++++++++++++++++++++++++++++++++++++++++++++",
"++++++++++++++++++++++++++++++++++++++++++++",
"++++++++++++++++++++++++++++++++++++++++++++"
};
