/* XPM */
static char *sapinho6_2[] = {
/* columns rows colors chars-per-pixel */
"44 44 6 1 ",
"  c black",
". c #27E027",
"X c #00916B",
"o c #04CA6C",
"O c gray93",
"+ c None",
/* pixels */
"++++++++++++++++++++++++++++++++++++++++++++",
"++++++++++++++++++++++++++++++++++++++++++++",
"++++++++++++++++++++++++++++++++++++++++++++",
"++++++++++++++++++++++++++++++++++++++++++++",
"++++++++++++++++++++++++++++++++++++++++++++",
"++++++++++++++++++++++++++++++++++++++++++++",
"++++++++++++++++++++++++++++++++++++++++++++",
"++++++++++++++++++++++++++++++++++++++++++++",
"++++++++++++++++++++++++++++++++++++++++++++",
"++++++++++++++++   +++++  ++++++++++++++++++",
"+++++++++++++++ ooo +++ oo +++++++++++++++++",
"++++++++++++++ OOOo ++ OOOo ++++++++++++++++",
"++++++++++++++    oo      oo +++++++++++++++",
"++++++++++++++ OOOoooooOOOoo +++++++++++++++",
"+++++++++++++ ooooooooooooooo ++++++++++++++",
"++++++++++++ ooooooooooooooooo +++++++++++++",
"+++++++++++ oooooooooooooooooo +++++++++++++",
"+++++++++++ .............oooooo ++++++++++++",
"+++++++++++ ..............ooooo ++++++++++++",
"++++++++++++ .............ooooo ++++++++++++",
"++++++++++++ .............oooooo +++++++++++",
"++++++++++++ .............ooooooo ++++++++++",
"+++++++++++ ..............ooooooo ++++++++++",
"+++++++++++ ..............oooooooo +++++++++",
"+++++++++++ .............ooooooooo +++++++++",
"++++++++++++ ............oooooooooo ++++++++",
"++++++++++++ ............ooooooooooo +++++++",
"++++++++++++ ............oooooooooooo ++++++",
"++++++++++++ ...........oooooooooooooo +++++",
"+++++++++++++ ..........oooooooooooooo +++++",
"+++++++++++++ ..........oooooooooooooo +++++",
"++++++++++++++ ........oooo.oooooooooo +++++",
"+++++++++++++ XX.......oooo.oooooooooo +++++",
"+++++++++++++ XXX.....oooo...ooooooooo +++++",
"++++++++++++ XXXX  ..ooooo....ooooooo ++++++",
"+++++++++++ XXXX ++ oooooXXoooooooooo ++++++",
"++++++++++++    ++++                 +++++++",
"++++++++++++++++++++++++++++++++++++++++++++",
"++++++++++++++++++++++++++++++++++++++++++++",
"++++++++++++++++++++++++++++++++++++++++++++",
"++++++++++++++++++++++++++++++++++++++++++++",
"++++++++++++++++++++++++++++++++++++++++++++",
"++++++++++++++++++++++++++++++++++++++++++++",
"++++++++++++++++++++++++++++++++++++++++++++"
};
