/* XPM */
static char *sapinho6_4[] = {
/* columns rows colors chars-per-pixel */
"44 44 6 1 ",
"  c black",
". c #27E027",
"X c #00916B",
"o c #04CA6C",
"O c gray93",
"+ c None",
/* pixels */
"++++++++++++++++++++++++++++++++++++++++++++",
"++++++++++++++++++++++++++++++++++++++++++++",
"++++++++++++++++++++++++++++++++++++++++++++",
"++++++++++++++++++++++++++++++++++++++++++++",
"++++++++++++++++++++++++++++++++++++++++++++",
"++++++++++++++++++++++++++++++++++++++++++++",
"++++++++++++++++++++++++++++++++++++++++++++",
"++++++++++++++++++++++++++++++++++++++++++++",
"++++++++++++++++++++++++++++++++++++++++++++",
"+++++++++++++++++   +++++  +++++++++++++++++",
"++++++++++++++++ ooo +++ oo ++++++++++++++++",
"+++++++++++++++ OOOo ++ OOOo +++++++++++++++",
"+++++++++++++++    oo      oo ++++++++++++++",
"+++++++++++++++ OOOoooooOOOoo ++++++++++++++",
"++++++++++++++ ooooooooooooooo +++++++++++++",
"+++++++++++++ oooooooooooooooo +++++++++++++",
"++++++++++++ oooooooooooooooooo ++++++++++++",
"++++++++++++ .............ooooo ++++++++++++",
"+++++++++++++ .............oooo ++++++++++++",
"++++++++++++ ..............ooooo +++++++++++",
"++++++++++++ ..............ooooo +++++++++++",
"+++++++++++ ...............ooooo +++++++++++",
"+++++++++++ ...............oooooo ++++++++++",
"++++++++++ ...............ooooooo ++++++++++",
"++++++++++ ...............oooooooo +++++++++",
"++++++++++ ..............ooooooooo +++++++++",
"++++++++++ ..............oooooooooo ++++++++",
"++++++++++ ..............oooooooooo ++++++++",
"++++++++++ .............oooooooooooo +++++++",
"++++++++++ .............ooooooooooooo ++++++",
"+++++++++++ ............ooooooooooooo ++++++",
"+++++++++++ ...........oooooooooooooo ++++++",
"++++++++++++ ..........oooooooooooooo ++++++",
"++++++++++++ X........oooo.oooooooooo ++++++",
"++++++++++++ XX......oooo...ooooooooo ++++++",
"+++++++++++ XXXX ...ooooo....ooooooo +++++++",
"++++++++++ XXXX +  oooooXXoooooooooo +++++++",
"+++++++++++    ++++                 ++++++++",
"++++++++++++++++++++++++++++++++++++++++++++",
"++++++++++++++++++++++++++++++++++++++++++++",
"++++++++++++++++++++++++++++++++++++++++++++",
"++++++++++++++++++++++++++++++++++++++++++++",
"++++++++++++++++++++++++++++++++++++++++++++",
"++++++++++++++++++++++++++++++++++++++++++++"
};
