/* XPM */
static char *collectible[] = {
/* columns rows colors chars-per-pixel */
"44 44 109 2 ",
"   c #02010C",
".  c #0C0E13",
"X  c #131916",
"o  c #120F1A",
"O  c #331E1D",
"+  c #1C2419",
"@  c #2E1F2A",
"#  c #2B2125",
"$  c #36282B",
"%  c #59080C",
"&  c #650C0F",
"*  c #790A0D",
"=  c #740D11",
"-  c #6B0E10",
";  c #541C22",
":  c #44312B",
">  c #593828",
",  c #4F3A3F",
"<  c #753639",
"1  c #354E2B",
"2  c #345029",
"3  c #3E7839",
"4  c #574139",
"5  c #704930",
"6  c #527B3D",
"7  c #486E37",
"8  c #543D42",
"9  c #595456",
"0  c #7D5A40",
"q  c #6B514E",
"w  c #73714F",
"e  c #755D62",
"r  c #6D5E64",
"t  c #7E7676",
"y  c #686160",
"u  c #890C0C",
"i  c #851112",
"p  c #970F0D",
"a  c #B00F05",
"s  c #8C2E29",
"d  c #BA2724",
"f  c #AA2217",
"g  c #D3140F",
"h  c #E8150D",
"j  c #F51911",
"k  c #F12618",
"l  c #CF3126",
"z  c #EF3A27",
"x  c #C75236",
"c  c #F75D3E",
"v  c #8D5458",
"b  c #936E50",
"n  c #AA7B5E",
"m  c #837C7E",
"M  c #90716D",
"N  c #A67D62",
"B  c #FE724C",
"V  c #EE6B4D",
"C  c #D37F70",
"Z  c #49833E",
"A  c #4F8941",
"S  c #548943",
"D  c #5B9448",
"F  c #778C4C",
"G  c #639C4D",
"H  c #75954E",
"J  c #739C50",
"K  c #6F9D5D",
"L  c #6BA44E",
"P  c #6EA652",
"I  c #71A854",
"U  c #77B158",
"Y  c #769D66",
"T  c #7BA864",
"R  c #AA815E",
"E  c #809F72",
"W  c #B1876E",
"Q  c #85B16C",
"!  c #8BB374",
"~  c #93BA7E",
"^  c #82AF66",
"/  c #C79974",
"(  c #CF8D72",
")  c #D1A279",
"_  c #F38471",
"`  c #917F85",
"'  c #878184",
"]  c #9A8F8F",
"[  c #A09094",
"{  c #9CBE88",
"}  c #95A28C",
"|  c #A0BE8E",
" . c #A0A58B",
".. c #B6B6AD",
"X. c #B8B9B5",
"o. c #AEAEA6",
"O. c #E9AD93",
"+. c #E7A58F",
"@. c #A9C397",
"#. c #A1C38C",
"$. c #B3CAA7",
"%. c #BCC6B6",
"&. c #ADC3A3",
"*. c #C3D2B8",
"=. c #C3CEBA",
"-. c #C8CEC6",
";. c #CDD4C5",
":. c #D1D6C9",
">. c #ECCEC9",
/* pixels */
"I I I I I I I I I I I I I I I I I I I I I I I I I I I I I I I I I I I I I I I I I I I I ",
"I P I I I I I L I I I I I I I I I I I I I I P I I I I I I I I I H I I I I P I I I I I I ",
"I L 3 D I I I P I I I I I I Y Y I I I I I I I I I I I I P P I I H P I I J F I I H P I I ",
"I I D G I I I I I I I I P I I P I I I I I I I I I I I I D S I I I I I I I I I I H I I I ",
"I I I I I I I I I I I I I I I I I I I I I I I I P I I I I I I I I I I I I I I I P H I I ",
"L P I I I D A D I I I I I I I I I I I P I I I I I I I I P I I I I I I I I I I I J H I I ",
"I I P I I G G I I I P I I I I I I I I P I P I I I I I I I I I I P I I I I I I I I U I I ",
"I G G U I I U I I I I I I I I I I I I I I I I I I I I I I I I I I I I I I I I I I I I I ",
"I P P I I I I I I I I I I I I I I I I I U L L L I I I I I I I I I I I I I I I I I I I I ",
"I I I I I I I I I I I I I I I P I I I L L U L L I P I I I I I I I P I I I I I I I I I I ",
"I I I I I I I I I I I I I I I I I I I | { w w R o.T I I I I P I H H I I I I H H I I I I ",
"I I P I I G D I I I I L I I I I I I | o.N R ( R W %.! I P P U I I I I I I I P I I I I I ",
"I P P I I D D I I I I I I I I I L ~ X.w W ) ) ) N t *.I P A D P I I I I I I I I P I I I ",
"I I I I I I I I I I I I I I I I L { X.q W ) ) O.b y -.T I G D I I I I I I I I I I I I I ",
"I I I I I I L L I I I I I P I I L { X.: 0 R W N > 9 :.I P I U I I H I I I I I I I K I I ",
"I I I I I I I I I I I I I I I I L Q ..M 4 5 b 5 9 } &.I I I I I J H I I I I I I I P I I ",
"I I I I I I I I I I I I I I I I I L #...: 5 5 > 9 :.U I I I I I I I I I I I I I I I I I ",
"I I I I I I I I I I P I I I I I I L @.o.@ @ @ O 9 :.^ J I I I I I I I I I I I I I I I I ",
"P P I I I I I L I I I I I I I I L ~ X.9 @ @ : N q m $.I J I I I I I I I I I I I I I P I ",
"I A D I I I I P I I P L I L P I ~ %.v i g g g >.( s ` =.T I I I I I I I I I I I I F J I ",
"I P P I P P I I I I I P I I P ^ %.v g h h j z +.>._ l [ &.L P P I I I I I I I I I I P I ",
"I I P I P P I I I I I P L I P Q -.< h h k c B B O.>.d M $.L I I I I I I I I I P I I F I ",
"I I P I I I I P I I I I I I L Q ;.8 p g c V B B V ( p ' $.L I I I I I I I S D I I I P I ",
"I I I I I G Z P I I I I P U L ^ -.8 % & p l x x d a p ] @.L I I I I I I I D L I I I I I ",
"I I P I I G D I I I I I I I G T -.8 % & & % % % i a u ` $.L I F I I I I I U I I I I P I ",
"I I I I I I I I I I I I I I U I @.] ; i = & % % u a q ..! L I I I I P I P I I I I I I I ",
"I I I I I P I I I I I I I 6 1 2 w -.< p = - % & i * ` =.L I I I I I I I I J I I P I I I ",
"I I I I I I P I I I I U S X     o m X.s p i - * = e ..! I I I I I I I I I F J I F J I I ",
"I I I I I I L I I I I U 7   . o   o ' o.< * % & e %.! P F J I I I I I P F P H H J F I I ",
"I I I I I I I I I I I I A X         + } o.e y e %.! L I P I U H J I I H H H I U H H I I ",
"I Y I I T I I I I I I I U 6 1 1 1 1 7 P #.*.*.%.Q I I I I P P J J P I I I H F H H H P I ",
"I P I P Y I I I I I L P I I U U U U U I L L L L I I I I I H H U I I I I I I J I I F I I ",
"I I I I I I I I I I I I I I P P P P P I I I I I I I I I I I I I I I I I I I I I I J I I ",
"I P I I I I I I I I I I I I I I I I I I I I I I I I I P I I I I I I I I I I I I I I I I ",
"I I P I I I I I I I I I I I I I I I I I I I I I I I I I I I I I I I I I I I I I I I I I ",
"I I I I I I I I I I I I P I I P I P I I I I I I I I I I I I I I I I I I I I I I I I I I ",
"I I E T P P I I I L L L P P L P I I I I I I I I I I I I I I I I I I I I I G G I I J F I ",
"I L Y I I P I I I I I G P P P P I I I I I I I I I I I I F I I I I I I I G A L I U I H H ",
"I I P I I I I Y I I I L P I P P I I I I I I I I I I I I J I I J H I I I I I I P D G I I ",
"I I I I I I P P I I I I I L I I I I I I P I I I P I I I I I I P H I I I I I I G A I I I ",
"I I I I I I I I I I I L I P I I I I I I I I I I I I I I I I I I I I I I I I I I I I I I ",
"I I I I I I I I I I I P I I I I I I P I I I I L L I I I I I I I I H I I I I I P I P I I ",
"I I I I I I I I I I I I I I I I I I I I I I I P I I I I I I I I I H P I I I I I I I I I ",
"I I P I I I I I I I I I I I I I I I I I I I I I I I I I I I I P I I I P I I I I I I I I "
};
