/* XPM */
static char *grass_64px[] = {
/* columns rows colors chars-per-pixel */
"44 44 14 1 ",
"  c #457F3C",
". c #4D8140",
"X c #538D43",
"o c #5D9548",
"O c #649C4C",
"+ c #76994E",
"@ c #759D51",
"# c #69A44F",
"$ c #72A04F",
"% c #6DA652",
"& c #71A854",
"* c #7A9E6D",
"= c #77A362",
"- c #829F73",
/* pixels */
"&&&&&&&&&&&&&&&&&&&&&&&&&&&&&&&&&&&&&&&&&&&&",
"&%%&&&&#&&&&&&&&&&&&&&&&&&&&&&&&$&&&&$&&&&&&",
"&# O&&&%&&&&&&*=&&&&&&&&&&&&#%&&$&&&$+&&$&&&",
"&&o#&&&&&&&&&&%%&&&&&&&&&&&&oo&&&&&&&&&&$&&&",
"&&&&&&&&&&&&&&&&&&&&&&&&&&&&&&&&&&&&&&&&$$&&",
"#%&&&oXO&&&&&&&&&&&=&&&&&&&&&&&&&&&&&&&&$@&&",
"&&&&&#O&&&&&&&&&&&&&&&&&&&&&&&&&&&&&&&&&&&&&",
"&O#&&&&&&&&&&&&&&&&&&&&&&&&&&&&&&&&&&&&%&&&&",
"&&&&&&&&&&&&&&&&&&&&&&&&&&&&&&&&&&&&&&&&&&&&",
"&&&&&&&&&&&&&&&&&&&&&&&&&&&&&&&&&&&&&&&%&&&&",
"&&&&&&&&&&&&%&&&&&&&&&&&%%&&&&&&$+&&&&++%&&&",
"&&#&&Oo&&&&#%&&&&&&&&&&&%%&&&%&%&&&&&&&&&&%&",
"&&%&&OO&&&&&&&&&&&&&%&&&&&&&&oo&&&&&&&&&&&&&",
"&&&&&&&&&&&&&&&&&&&%%&%%&&&&&#O&&&&&&&&&&&&&",
"&&&&&&#%&&&&&&&&&&&&&&%%&&&&&&&%&+&&&&&&=&&&",
"&&&&&&&%%&&&&&&&&&&&&&&&&&&&&&&&$&&&&&&&%&&&",
"&&&&&&&&&&&&&&&&&&&&&&&&&&&&&&&&&&&&&&&&&&&&",
"&&%&&&&&&&&&&&&&&&&&&&&&&&&&&&&&&&&&&&&%&&&&",
"&%&&&&%%&&&&&%&&&&&&&&&&&&&&&&&&&&&&&&&&&&&&",
"&Xo&&&&%&&%%&#&&&&&&&&&&&&&&=&&&&&&&&&&&&@$&",
"&%%&%%&&&&&&%&&&&&&&&&&&&&&&=&&&&&&&&&&&&&$&",
"&&%&%&&&&&&%%&&&&&&&&&&&&&&&&&&&&&&&&&&&&$@&",
"&%%&%&&%&&&&&&&&&&&%%%&&&&&&&&&&&&&&&XO&&&&&",
"&&&&&#.%&&&&&&&%&&%%%%&&&&&&&&&%%&&&&O%&&&&&",
"&&&&&#o&&&&&&&%%&&&&&&&&&&&&%&%+&&&&&&&&&&&&",
"&&&&&&&&&&&&&&&&&&&&&&&&&&&&&&%%&&&&&&&&&&&&",
"&&&&&&&&&&&&&&&&&&&&&&&&&&&&&&&&&&&&&$&&&&&&",
"&&&&&%%&&&&&&&&&&&&&&%%&&&&&&&&&&&&&&@@$+@&&",
"&&&&&&%&&&&&&&&&&&&&&%%%&&&&+$&&&&&%+&$+$+&&",
"&=&&%&&&%&&&%%&%&&&&&&&%&&&&&&&@+&&$++&&@+&&",
"%=&==&&&&&&%%&&&&&&&&&&&&&&&%&&$$%&&&+++$+$&",
"&&&&=&&&&&%%&&&&&&&&&&&&&&&&%@@&%&&&&&&&$@&&",
"&&&&&&&&&&%&&&&&&&&&&&&&&&&&&&&&&&&&&&&&&$&&",
"&=&&&&&&&&&&&&&&&&&&&&&&&&&&&&&&&&&&&&&&&&&&",
"&%&&&&&&&&&&&&&&%&&&&&&&&&&&&&&&&&&&&&&&&&&&",
"&&%%&&%&&&&&%&&&&&&&&&&&&&&&&%&&&&&&&&&&&&&&",
"&%*=&&&&&%#%#%#%&&&&&&&&&&&&&&&&&&&&&#O&&&+&",
"&%*&&&&&&%%#%&#&&&&&&&&&&&&&&&&&&&&&#X#&&&++",
"&&%&&&&=&&&#&&%%&&&&&&&&&&&%&&&%$&&&%%&%OO&&",
"&&&&&&&=&&&&%#%&&&&&&&&&&&%&&&&&$&&&&&&#X&&&",
"&&&&&&&&&&%%%%&&&&&&&&&&&&&&&&&&&&&&&&&&&&&&",
"&&&&&&&&&&&%&&&&&&&&&&&%%&&&&&&&&+&&&&&&&&&&",
"&&&&&&&&&&&&&&&&&&&&&&&%%&&&&&&%&$&%&&&&&&&&",
"&&&&&&&&&&&&&&&&&&&&&&&&&&&&&&&&&&&&&&&&&&&&"
};
