/* XPM */
static char *grass[] = {
/* columns rows colors chars-per-pixel */
"44 44 79 1 ",
"  c #6BC738",
". c #6ECA3B",
"X c #6FCB3C",
"o c #70CC3D",
"O c #71CD3E",
"+ c #72CE3F",
"@ c #72CF3F",
"# c #73CF40",
"$ c #74D041",
"% c #75D042",
"& c #75D142",
"* c #76D143",
"= c #76D243",
"- c #77D344",
"; c #78D445",
": c #79D546",
"> c #7AD647",
", c #7BD748",
"< c #7CD749",
"1 c #7BD848",
"2 c #7CD849",
"3 c #7DD94A",
"4 c #7DDA4A",
"5 c #7EDA4B",
"6 c #7FDB4C",
"7 c #7FDC4C",
"8 c #80DC4D",
"9 c #81DD4E",
"0 c #82DE4F",
"q c #83DF50",
"w c #84E051",
"e c #85E152",
"r c #86E053",
"t c #86E253",
"y c #87E154",
"u c #87E354",
"i c #89E356",
"p c #88E455",
"a c #89E456",
"s c #89E556",
"d c #8AE657",
"f c #8BE358",
"g c #8BE758",
"h c #8CE559",
"j c #8CE659",
"k c #8EE65B",
"l c #8CE859",
"z c #8DE95A",
"x c #8EEA5B",
"c c #8EEB5B",
"v c #8FEB5C",
"b c #90E95D",
"n c #90EB5D",
"m c #90EC5D",
"M c #91ED5E",
"N c #92ED5F",
"B c #92EE5F",
"V c #93EF60",
"C c #96ED63",
"Z c #94F061",
"A c #95F062",
"S c #95F162",
"D c #96F063",
"F c #96F263",
"G c #97F364",
"H c #9AF067",
"J c #9AF267",
"K c #98F465",
"L c #99F466",
"P c #99F566",
"I c #9AF667",
"U c #9DF36A",
"Y c #9BF768",
"T c #9EF56B",
"R c #9CF869",
"E c #9DF96A",
"W c #9FFA6C",
"Q c #A1F76E",
"! c #A0FA6D",
/* pixels */
"332>;#O;uMg2+#;,>>9zSBs8:$#&:266>#O:0w2#O$;>",
"432>-#+;exp,@#;,>,9gBMdq2=$->3662=&,0q2&#&;:",
"542>-&$;8e9;#$:,350ulxxgq2;>36665446994>;---",
"652:-==-:,:&$=:260q0wdMVl03599660uae84696>-&",
"652:-;;;=&$$&-:28q054tVKMt669856exMd820ut5;&",
"652:;:>:-&&=-;>2808>:0MPBt644324tBGx93tczq,;",
"542:;>,,>::;::>2563;-8vFme4>:::2uZPv06sZBp5,",
"32,>:>,49083>>,,,,:--6gmg0,-&&-,eMFx08gSZd83",
">>>>>>,9dml0,>,>;&&;,9tpw4;$O+&,0dza00gVBs06",
";::>,>,wBYSu2>,>&o+:60084>=@oO&>59q00wdvxu08",
";;:>,:>wA!Lp2>2>$XO>0062>;-&&=;>>>>38qtpuq85",
";::>>:>qZWKp2>,>$o@,q04>;;;,342>-##-38998532",
"::>>>;:0mIZt,>,>&+$2092:-;>9tt9,&oX$,54,,>>>",
",,>::;>6pxd9>:,,:-;,54,:;;2tcxe2=Oo$>2,::>>,",
"32,:;:>2696,::>,222,>>>>;;3dSAd5;&$=>,,::>,2",
"54,:;:,,>:;;;:>2564>--:>:;4gGGz02>;:,,>>>,23",
"652:;:,,;-=-;:>2585:&=;>:;3pBZcpq63222,,2355",
"652:;>,,>:;;;:>2463:&=;>::2qdxvcge9653222568",
"542>:>,4806,;;>,,,>:;;:>,,238tnDNa08652>>256",
"22,,>>,9dmg8;;::-&=:22,,363-#<bTJj9685>==:,2",
"4332,>>0mKVt2:>:$o#>8832594@ %kQUh6475;#+&:>",
"utq83>:5dBBlt05>$o+>893,363$.*fHCy3132;$#&-;",
"ZBle6>=;4wgBZxe3=O#:662>,2,:;<rji8>:>>;--===",
"RPBa9>=$&>tSEFp5-#$:452,>:>,46996,;-;;:>>;==",
"IKMs02;&$;wZRSp6;$$;2343,;;:,232,:;-;:,32,:;",
"ZBxu05,:-:qmFMt5:=&->3883:==-;:>:;-;:>255422",
"xlse964,:>0lMlw4:-==:4qt0,-&$&-::;;;:,366655",
"utw98663,,8ugp93>:-=-6sxs8>=$$-;:;;:>,366655",
"986445652,5qeq62,>;==8cSme3;&&-:>>>>>,245555",
"22,>,2552,26863,22>==9MPVu5:==:,22,,>>,23334",
">>;--:22,>,22,,,23,--0BPVu5:-;,56642>>>,,222",
">:-&&-:>>>>::::>232;:0mGme3:;:40q084,:::>,,,",
"32:=$&-:>,>:;;;:,32>>9gms6:-->8wteq62::::>,,",
"q94:=&=->,,:;;;:,22,26et8;$$-,0upue93>:::,,2",
"pt03;=&=>22>;;::>,,23565:#O#;3wdgduq5,>:>,22",
"xlp03:--,43,>>>>>:>2332>=+O&,9pzxlsw62>>>,,,",
"Bmzpq3::2652,,2,:;:,33,:&#$;5egmmxde82,,>>>>",
"VBmzp9,>2652,232:-->33,:-&-,0uzMMzsw832,,>>>",
"MMMMze5,353,,364:&=:3432>:>6wsxmvguq6322,>::",
"lzmVMs9322,>>386>&$;25653239ealxlpw95222,>:;",
"tpxZVg03,>:;:399,&$;24554238qtpsuq8422222>:;",
"59dVSzq3>;==-3002&$-,232,>>2580094,>>,243,>>",
";2tBSxw3;=$$=2qw3=$->,,>:--:>2332:-;:>2552,,",
"=>eBFcw3;&##&2qw4=$->,>:;==-:>,,:-==;>2553,,"
};
