/* XPM */
static char *lake_polluted[] = {
/* columns rows colors chars-per-pixel */
"44 44 77 1 ",
"  c #3E703B",
". c #5C4137",
"X c #674E29",
"o c #6D532C",
"O c #73582C",
"+ c #644936",
"@ c #6B573B",
"# c #745B36",
"$ c #79623A",
"% c #4E3E4D",
"& c #5D3B4C",
"* c #4B3251",
"= c #5B3750",
"- c #603A4C",
"; c #34474E",
": c #2E4851",
"> c #374B52",
", c #3C5159",
"< c #49434D",
"1 c #56434C",
"2 c #455247",
"3 c #5A544E",
"4 c #474250",
"5 c #554951",
"6 c #41575D",
"7 c #595652",
"8 c #624443",
"9 c #695949",
"0 c #725C45",
"q c #745C51",
"w c #4E6F46",
"e c #5F634D",
"r c #4D7445",
"t c #57784B",
"y c #5C6552",
"u c #67664B",
"i c #796745",
"p c #6F724A",
"a c #777547",
"s c #676955",
"d c #637953",
"f c #757550",
"g c #455B62",
"h c #4C656C",
"j c #5D6860",
"k c #4C6871",
"l c #526B73",
"z c #55737B",
"x c #6A776E",
"c c #6F7C73",
"v c #727D72",
"b c #846736",
"n c #826B46",
"m c #8B7549",
"M c #927A4A",
"N c #877751",
"B c #937C51",
"V c #578B47",
"C c #6C874D",
"Z c #73884C",
"A c #68974E",
"S c #719B4F",
"D c #688853",
"F c #6B9654",
"G c #729B51",
"H c #6EA454",
"J c #71A954",
"K c #73B155",
"L c #9C824B",
"P c #8D8354",
"I c #9A8855",
"U c #A3894D",
"Y c #A58B56",
"T c #A9915B",
"R c #5B7981",
"E c #6C8180",
"W c #6B8990",
/* pixels */
"JJJJJJJJJHJJJJJJHJJJJJJJJJHHJJJJJJJJJJJJJJJJ",
"JJJKJJJJHHJJJJJJdFKJJJJKJJKJKJJJJJJJHJHJJHJJ",
"JHJDFJJJKKJJKHHHCZuuaaaueeeuAHHHJJJJJJtwJJJJ",
"JJJDFJJJD779pPPPMPTTTTTMMBNMPIPapp9sFJJFJDCJ",
"JFJJJJJ78NBBYMmUYMBMMMMMMLTYMMMLBUB0yKHKKFFJ",
"HdFJJJ78TTm#bobX$bo#bo$o$b#X$bOObMMY9dKHJJJH",
"JJJJJD5IUobbm0N9nN9iMimimM@#mnnamOomB5GJHJJJ",
"JJJJJyqU+xPvRkxgzDkRWlhhlz6lzzzkRsNbbqyKJJJJ",
"JJJJH5i#xkRklgk>h,,gz,g,hh;>kzh6RgRx#i5JJHJH",
"JJJJH7msR6Rg>>>>;;;;>>>>,>;>>6h>g>hRjN5JJJJJ",
"JDHJHuL5z,:;>>:>:;<4<<444;>;;;>;;;,6>N9HJJJJ",
"JdGJFiU2>::4<<<<<%--&&--&&&&<%<<<4;;>N9HJJJJ",
"JJJJHuM<:%1--&&&-&&&&&&&&&&&&------4>NuHJJJH",
"JJJJJZm2%=&&&&&&&&&&&&&&&&&&&&&&&&&&4NZKJJJJ",
"JJJHJZm8=&&&&-&&&&&&-&&&&&&&&&&&&&&&5NZJJJJJ",
"JJJJKZm8=&&&&&&&&&&&-1-&&&&&&&&&&&&&%NZKJGFJ",
"JJJJHZm8=&-&&&&&&&&&&&&-&&&&&&&&&&&&1NpHJFdJ",
"JJJKD0M8&&&&&&&-&&&&&&1-&&&&&&&&&&&-5N9JJJJJ",
"JJJJs0M8=&&&&&&&&&&&&&&&&&&&&&-&&&&&1NqDJJJJ",
"DDJH5im+-1&--1&&&&&&&-&&&-&&1&&&&&&-1fiuJJJJ",
"FDJKd0M8=&&-&&&&-&&&&&&&&&&&-&&&&&&-%BmuHJJJ",
"JKJKd0M8=-&&&&&&&&--&-&&-&&&-&&&&&&-%TM9JJJJ",
"JHJJD0B8&&&&&&-&&&&1&&&&&&&&&&&&&&&=%PnuHJJJ",
"JJJKd9B8&&&&&&&&&&&&&&&&&&&&&&&-&&&=5N0dKHJJ",
"JJJKF9M1=&&&-&&&--&&&&&-&1&&&&&&&&&&5N0DKJJJ",
"KDDJH9M+--&&&&--&1-&&&&&---&&&&&&&&-5N0DAVJJ",
"JFFJJam8=1&&&&&1&&&&&&&&&&&&&&&&&&&&1N9DV;FJ",
"JJJJKZm8=&&&&&&&&&&&&&&&&&&&-&&&&&&-<N9HKJJJ",
"JJJJJZM1&&&&-&&&&&&&&&&&&&&&&--&&&&-%NZKJJJJ",
"JGJJKZm+&&&&1&&&&&&&&&&&&&&&&1&&&&&&1NZKJJJJ",
"JJHJZaM8=-&&--&&&&&--&&&&&&&&&&&&&&=1N$ZJJJJ",
"JJJJZnY-&&&&&&&&&&&&-1-&&&-&&&&&&&&=%IniJSGJ",
"JJJJJaU.&&&&&&&&&&&&&&&&&&&&&&&&&&&-%IBpHsHJ",
"JJJJHNY&&&&&&&&&&&&&&&&&&-&&&&&&&&&-4TI0FJJH",
"JJHJHfT.=&&&&&&&&&&&&&&&&&&&&&&=&&&-4Im9DKHJ",
"JJJJH3YY.&&&&-&&-&&---&&&&&8&&&&&-&&1Ti0DKJJ",
"JJJJJ31IU$+&&&&&&&&&=&=&===&*&&=&=.+YBi0CJJJ",
"JJJJJH5&NYUnii#+#++ibin@@nnn$X@nm$mTTNP8FJJJ",
"JJJJJJHs*5iiiniimminnnNiinqnmaiMIILiiPNyJHJJ",
"JJJGJJJJd735sFJGZGZCZZZZZZdCFJJi$990009DKJHJ",
"JJJJJJHJKKJJJJJJKHHdHKKJJJKJJJJGGDDDDDJA rFJ",
"JJHJJJJJJJHJJJJJJsFGHHJJJJJJJJJJJJKJJKJHVDHJ",
"JJJJHJHJJHJJJJJJJGJJJJdFJJJJJJJHJJHJJJJJKKJJ",
"JJHJJJJJJJJJJJJJJJJJJJDHJJJJJJJJJJJJJJJJJJJJ"
};
