/* XPM */
static char *player_64px[] = {
/* columns rows colors chars-per-pixel */
"44 44 105 2 ",
"   c #1A3516",
".  c #253B1A",
"X  c #2B3D20",
"o  c #27421C",
"O  c #147C13",
"+  c #107409",
"@  c #276A1D",
"#  c #004723",
"$  c #0C542A",
"%  c #115636",
"&  c #295A28",
"*  c #32492C",
"=  c #097331",
"-  c #3B612E",
";  c #386536",
":  c #257339",
">  c #347632",
",  c #445A2D",
"<  c #476B35",
"1  c #467539",
"2  c #547A3A",
"3  c #556B3B",
"4  c #62783A",
"5  c #616A34",
"6  c #07694A",
"7  c #007659",
"8  c #006E57",
"9  c #726F6A",
"0  c #4D494E",
"q  c #0F8711",
"w  c #1BB316",
"e  c #20BA12",
"r  c #0D823C",
"t  c #358227",
"y  c #59853E",
"u  c #4C813F",
"i  c #1EC41F",
"p  c #29E21D",
"a  c #1FCE26",
"s  c #20C422",
"d  c #27DF29",
"f  c #24DC35",
"g  c #28E128",
"h  c #2CF52A",
"j  c #22E53D",
"k  c #048A47",
"l  c #05954C",
"z  c #059B54",
"x  c #12964F",
"c  c #24974C",
"v  c #01A459",
"b  c #12AE56",
"n  c #20AB4E",
"m  c #069A66",
"M  c #019775",
"N  c #008E6E",
"B  c #03B963",
"V  c #02A176",
"C  c #578B42",
"Z  c #5D9547",
"A  c #648B46",
"S  c #659A4B",
"D  c #769A4E",
"F  c #759D51",
"G  c #6C9851",
"H  c #69A34E",
"J  c #72A14F",
"K  c #6EA652",
"L  c #71A854",
"P  c #77B35A",
"I  c #789D6C",
"U  c #6D997C",
"Y  c #78A365",
"T  c #55A971",
"R  c #1CD746",
"E  c #00C55A",
"W  c #15D355",
"Q  c #21D641",
"!  c #1DE253",
"~  c #22E442",
"^  c #23F450",
"/  c #04CA6B",
"(  c #05D26C",
")  c #02C872",
"_  c #05D472",
"`  c #1AD271",
"'  c #23D271",
"]  c #829F73",
"[  c #8B7484",
"{  c #7C8E81",
"}  c #4CD184",
"|  c #73DC9A",
" . c #8A8A88",
".. c #9ABCA4",
"X. c #AFB6AE",
"o. c #C2B2BC",
"O. c #C4AFBD",
"+. c #82DFA4",
"@. c #93E7B1",
"#. c #90E5AE",
"$. c #C5BCC2",
"%. c #B2F7C8",
"&. c #CEE7D8",
"*. c #DFF7E5",
"=. c #D0D4D5",
/* pixels */
"L L L L L L L L L L L L L L L L L L L L L L L L L L L L L L L L L L L K L L L L L L L L ",
"L L L L L L K L L L L F L L L L L L L L L L L L L L L L L L L L L L L L H L L L L L L L ",
"L L L D L L D J L L L F L L H K L L L L L L L L L L L L Y Y L L L L L L K K L L Z u H L ",
"L L L D L L L L L K L L L L Z Z L L L L L L L L L L L L K H L L L L L L L L L L H Z L L ",
"L L J L L L L L L L L L K L L L L L L L L L L L L L L L L L L L L L L L L L L L L L L K ",
"L L D F L L L L L L L L L L L L L L L L L L L L Y L L L L K L L L L L L S C Z L L L H K ",
"L L L L K L L L L K L L L L L L L L L L L L L L L L L L L L L L L L L L L Z H L L L L L ",
"L L L L L L L L L L L L L L L L L L L L L L L L L L L L L L L L L L L L L P L L L H S L ",
"L L L L L L L L L L L L L L L L L L L L L &   S L L L P <     y L L L L L L L L L K K L ",
"L L L L K L L L L L J L L L L L L L L J < c n 1 G P L < x n n > A L L L L L L L L L L L ",
"L L L K J D K L L L D J L L L L L L L & c &.*.=.9 Z P . k %.*.&. .y L L L L L L L L L L ",
"L L L L L K L L L L L L L L K K L J 1 l ` U [  .* * ; x / { [  .0 1 P L L S S L L K K L ",
"L L K L L K L L L L L L L Z Z H P H & B ' X.O.o.T z l / ( ..O.$.9 3 P L L S Z L L K K L ",
"L L Y L L L L L L L L L K S H L L J & B ' +.@.#.' ( _ / / | @.@.} : A L K L P L L L L L ",
"L L K Y K P L L L L F J L L L L L - z / / E E E ( ` / / / / E E ( B = C L K L L L L L L ",
"L L K K L K L L L L F K L L L K 1 l ( / / / ) ) ) ) ) / / ) ) ) ) _ B : y P K L L L L L ",
"L L L L L L L L L L L L L L P G & / ) / / ) W f R R R R R R R R Q R ^ = * P K L L L L L ",
"L L L L L L L L L L L L K L K 1 l / / / ( W d p g p p p p p p p p g e t S P L L L L L L ",
"L L K L L L L L L L L J L L 1 k / / / / / d p d d d g d g d g g d h q < L K L L L P K L ",
"L J D L K L L L L K L P L 1 l _ / / / / / f g g g d d g d g g d g i t S K K L L P y y L ",
"L J L L L L L L L L L , - l _ / / / / / ) f p d d g g d g g d d h O , P L L K K K H K L ",
"L D L L L L P L L L 1 = k ( / / / / / / / f g d g d g g d g g d h q < Y L K K K L K K L ",
"L L L L L Z C L J ; l _ _ / / / / / / / ( g g g g d g d g d d d h O ; P L L P K L K K L ",
"L L L K K H S L 1 k _ / / / / / / / / / / W d g g d d g d g g g i > A L K 2 S L L L L L ",
"L K L L L L J 1 l _ / / / / / / / / / / / ) f p d g g d d d d g O 2 P L L Z G L L L K L ",
"L L L L L P 2 # _ / / / / / / / / / / / / / f p d g d g g g g h q 1 P L L L L L L L L L ",
"L L L J L L 4 $ ( / / / / / / / / / ) / / ) W d g g g d d d g s t Z L L L K L L L K L L ",
"L L F D J L 4 $ ( / / / / / / / / / W / / / ) f p d d g d p h + 3 P L L L H K L L L L L ",
"L L D J F L A $ ( / / / / / / / / ) f / ) / / R d g g g d p f = ; H K K L K L L L L L L ",
"L L D D L P 5 # _ / / / / / / ) ) W f W / / / ) f p d g h d m M % 2 P K L L L L L L Y L ",
"L J F F F D 4 ; B / / / / / / / W p p p ` / / / R d h s w x M M 6 ; K L K L L Y L L Y K ",
"L L D J L J P A % ( _ _ ( / _ _ ~ j j f / _ ( ( _ ! s @ X 6 N M M 8 ; H L L L Y L L K K ",
"L L J L L L L S : v v v v v v v v v v 7 7 z v v v v : S P 2 6 7 8 7 % A L L L L L L L L ",
"L L L L L L L L S o . o o o o o o o o o o o o o o   S L L L < . o   C L K L L L L L L L ",
"L L L L L L L L L L L L L L L L L L L L L L L L L L L L L L L L L L L L L L L L L L L L ",
"L L L L L L L L L L L L L K L L L L L L L L L L L L L L K L L K L L L L L L L L L L L L ",
"L D L L L S H K L L L L L L L L L L K L L L L K L L L L K H K H K H H L L L L L Y ] K L ",
"D F L L L K C S L L L L L K K D L L L L L L L L L L L L L H L K H K L L K L L L Y I K L ",
"L L G Z K L L L L L L D J K L L L L L L L L L L L L L L K K L K H L L L L L L L K L L L ",
"L L K C H L L L L L L J L L L L L L L K L L L L L L L L L L H K L L L L L L L L L L L K ",
"L L L L L L L L L L L L L L L L L L L L L L L L L L L L L L K L H L L L L L L L L L L L ",
"L L L L L L L L L L D L L L L L K L L K H L L L L L L L L L L L K L L L L L L L L L L L ",
"L L L L L L L L L K J L L L L L L L L K K L L L L L L L L L K L L L L L L L L K L L L L ",
"L L L L L L L L L L L L L L L L L L L L L L L L L L L L L L L L L L L L L L L L K L L L "
};
