/* XPM */
static char *sapinho6_1[] = {
/* columns rows colors chars-per-pixel */
"44 44 6 1 ",
"  c black",
". c #27E027",
"X c #00916B",
"o c #04CA6C",
"O c gray93",
"+ c None",
/* pixels */
"++++++++++++++++++++++++++++++++++++++++++++",
"++++++++++++++++++++++++++++++++++++++++++++",
"++++++++++++++++++++++++++++++++++++++++++++",
"++++++++++++++++++++++++++++++++++++++++++++",
"++++++++++++++++++++++++++++++++++++++++++++",
"++++++++++++++++++++++++++++++++++++++++++++",
"++++++++++++++++++++++++++++++++++++++++++++",
"++++++++++++++++++++++++++++++++++++++++++++",
"++++++++++++++++++++++++++++++++++++++++++++",
"+++++++++++++++   +++++  +++++++++++++++++++",
"++++++++++++++ ooo +++ oo ++++++++++++++++++",
"+++++++++++++ OOOo ++ OOOo +++++++++++++++++",
"+++++++++++++    oo      oo ++++++++++++++++",
"+++++++++++++ OOOoooooOOOoo ++++++++++++++++",
"++++++++++++ oooooooooooooo ++++++++++++++++",
"+++++++++++ oooooooooooooooo +++++++++++++++",
"++++++++++ oooooooooooooooooo ++++++++++++++",
"++++++++++ .............ooooo ++++++++++++++",
"+++++++++++ .............ooooo +++++++++++++",
"+++++++++++ .............oooooo ++++++++++++",
"++++++++++++ ............ooooooo +++++++++++",
"++++++++++++ ............oooooooo  +++++++++",
"++++++++++++ ............oooooooooo ++++++++",
"++++++++++++ ............ooooooooooo +++++++",
"+++++++++++++ ..........ooooooooooooo ++++++",
"+++++++++++++ ..........oooooooooooooo +++++",
"+++++++++++++ ..........oooooooooooooo +++++",
"++++++++++++++ ........ooooooooooooooo +++++",
"++++++++++++++ ........oooo.oooooooooo +++++",
"+++++++++++++ XX......ooooo.oooooooooo +++++",
"+++++++++++++ XXX.....oooo...ooooooooo +++++",
"++++++++++++ XXXX  ..ooooo....ooooooo ++++++",
"+++++++++++ XXXX ++ oooooXXoooooooooo ++++++",
"++++++++++++    ++++                 +++++++",
"++++++++++++++++++++++++++++++++++++++++++++",
"++++++++++++++++++++++++++++++++++++++++++++",
"++++++++++++++++++++++++++++++++++++++++++++",
"++++++++++++++++++++++++++++++++++++++++++++",
"++++++++++++++++++++++++++++++++++++++++++++",
"++++++++++++++++++++++++++++++++++++++++++++",
"++++++++++++++++++++++++++++++++++++++++++++",
"++++++++++++++++++++++++++++++++++++++++++++",
"++++++++++++++++++++++++++++++++++++++++++++",
"++++++++++++++++++++++++++++++++++++++++++++"
};
