/* XPM */
static char *wall_64px[] = {
/* columns rows colors chars-per-pixel */
"44 44 50 1 ",
"  c #0B1E16",
". c #0D2318",
"X c #132A1B",
"o c #19331E",
"O c #3A2919",
"+ c #2C2F1B",
"@ c #183A23",
"# c #341C13",
"$ c #412E1D",
"% c #44311F",
"& c #473622",
"* c #523C28",
"= c #1D472A",
"- c #214C2C",
"; c #25572D",
": c #2B5C31",
"> c #325E33",
", c #34582E",
"< c #29642E",
"1 c #2D6C31",
"2 c #2F7032",
"3 c #327233",
"4 c #316334",
"5 c #55432C",
"6 c #4C572F",
"7 c #5D4930",
"8 c #585933",
"9 c #484C29",
"0 c #644D34",
"q c #695337",
"w c #46793C",
"e c #59753E",
"r c #546838",
"t c #547F41",
"y c #47823C",
"u c #4D8641",
"i c #568944",
"p c #5D9547",
"a c #648B47",
"s c #66984C",
"d c #769A4E",
"f c #699D50",
"g c #759D52",
"h c #69A34E",
"j c #6DA652",
"k c #71A854",
"l c #76B157",
"z c #7A9D6D",
"x c #77A362",
"c c #829F73",
/* pixels */
"kkkkkkkkkkjkkkkkkkkkkkjkkkkkkkkkkkkkkkkkkjkk",
"kjjkkkkhkkkkkkkkkkkklu1ulkkkkkkkdkkkkjkkkkkk",
"khwskkkjkkkjkkxxjkjlu;<=ikkkjhkkdjkkjdkkdgkk",
"kkphkkkkkkkkkkjjkjlu;13<=ikkppkkkkkkkkkkgkkk",
"kklkkkkjkkkkkkkkklu;<<2<==ikkkkkkkkkkkkkjgkk",
"hhjjkpihkkkkkkkkku<<<211-=-ikkkkjkkkkjkkgdkk",
"kkkkkhpkkkkkkkjli<2;<112:===ilkkkkkkkkkkkkkk",
"kffkkklkkkkjkkki<<:-32222:==-ukkkkkkkkkkkkkk",
"kjjkkkkkkkkkjkky;=.==<<<<-===>jkkkkkkkkkkkkk",
"kkkkkkkkjkkjlhw1;@=o..@=X@@==>kljjkkkkkjkkkk",
"kkkkkklkkkkkk3<2<:3;-;<;-@@===:igdkkkkddjkkk",
"kjjkjspkkkkhy<21212=<3223@;<=-@:kkkkjkkkkkkk",
"kjjkkppkkkkj311<112-<1111@-:==-=wlkkkjkkkjkk",
"kkkkkkljkjlu=:;;122-<2111=@<====-skkkkkkkxkk",
"kkkkkkjjkkkp-.@=2<2o<212:=.@--===wlkkkkkxgjk",
"kkkkkkkjkjli=;=o<=-=-1:;=Xo.@@@X-sjkkjkkkjkk",
"kkkkkkkkjxi<23;XXo.@==@X@@-@@-o=-skkkkkkkkkk",
"kkjkkkkkjly1112:=.Xo=XX-==-;=<-==:skkkjkkkkk",
"kjlkkkjjkf211222<X=1=@=<===;;--=-=>jkkkkjjkk",
"kiikkkjkj3112212=-2;==;<==@;3======slkkkkggj",
"kjjkjkkky13;:<-;=11-==;:=-@X1-=-=-=>kkkkkkkk",
"kjjkjkjl4-;-=--==-;;========--===-@@ilkkkjdk",
"kjjkkkxp-==---=X===========@@====-@Xippkkkjk",
"kkkkkpiu--=@@@..===-@@=----@.===@=X-hshkkkkk",
"kkkkkhpji-Xo@==@.@==X.oo==@@..XX.X=-slkkkkkk",
"kkkkkkkkh-@-==--=XX@o@@XX.@.@@X.=-==>jkkkkjk",
"kkjkkkkk>=-====X=-=-==---=-=--@X=====pkjkkkk",
"kkkkkkl3@-=-=-XX;=====--@-=-==@.=====-dgdgkk",
"kjkkkli=--@@-@..@=X@-@-XX@=====.X-=X==ekddkk",
"kxkkku=X--XXoXXXX@ @X.X..XoX@@@.Xo=..o:hddkk",
"kxkkxt: @X.. ...............  .... .oo6sgdkk",
"kkjkzks@oooooooo+XXXXXOXXXX@@@@@oX-rkjkkjdkk",
"kkkkjkkfsssssssss9*OO$OO%Oisssssssklkkkkkgkk",
"kkkkkkkklkkkklkkl80OO*O&*%fllkkkklkkkkkkkkkk",
"kjkkkkkkjkkkjkkkk80+*7$*7%dkkjjkgkkkkjkkkkkk",
"kkjkkkkkkkkjjjjks0%O05&$q*rlkkkkjkkkjlkkkkjk",
"kjcxjkjkkhhhjjhkg*$O87&$qq*akkkkjkkkkfskjkdk",
"kjzxkkkkkkjhjjhkt&O$q5&&00*rdjkkkkkksihlkkdd",
"kkjjkkkxkkjhhkli&*#07&O&5*q5sljjgkjkkkkhsfkk",
"kkkkkkjkkkkkkhs7q*57%#&50&*0qhkjjkkkkkkhujkk",
"kkkkkkkkkkkhls5*%5&#$6tt*6O*0*akkkkkkjkkkkkk",
"kkkkkkkkkkjjjhse$&6tifss6sr$88ejkgkkkkkkkkkk",
"kkkkkkkkkkkkkfsfaafsfasasssasssfkgjjkkkkkkkk",
"kkkkkkkkkkkkkkfsffsfsfsfssfffjfkkkkjkkkkkkkk"
};
