/* XPM */
static char *wall[] = {
/* columns rows colors chars-per-pixel */
"44 44 59 1 ",
"  c #396927",
". c #37772C",
"X c #3A7B33",
"o c #3C6932",
"O c #3D5829",
"+ c #47572A",
"@ c #455A32",
"# c #4A4F2B",
"$ c #46642A",
"% c #58652D",
"& c #476735",
"* c #467838",
"= c #577638",
"- c #4B6E30",
"; c #597E40",
": c #37812E",
"> c #388835",
", c #38973A",
"< c #37A43E",
"1 c #3CB03F",
"2 c #458737",
"3 c #55843C",
"4 c #469739",
"5 c #509135",
"6 c #66923C",
"7 c #4AA33D",
"8 c #55AB3C",
"9 c #66AE3E",
"0 c #39AA42",
"q c #3BB746",
"w c #3E9A41",
"e c #548B42",
"r c #639543",
"t c #45A843",
"y c #44BA47",
"u c #59B844",
"i c #57AB42",
"p c #68B645",
"a c #6FAD49",
"s c #3EC54D",
"d c #3ECC50",
"f c #46C74D",
"g c #56CA4B",
"h c #53CE52",
"j c #69C947",
"k c #75CB46",
"l c #68D14B",
"z c #7BD64A",
"x c #74D354",
"c c #79E25D",
"v c #5BC03E",
"b c #81DB4F",
"n c #83DC53",
"m c #83CD52",
"M c #89E458",
"N c #91EC5F",
"B c #93EE62",
"V c #99F467",
"C c #8AEB64",
/* pixels */
"zzzzkkkzMNMbkzzzzzzMVNMzzzkzzjv18vlzbMzzkkzz",
"bzbzzkkzMNMzkkzzzzbMNNMMzzzzzjy11vjzMzzzkzzz",
"bbzzzkkzzbzzkkzzbbbMNNNMbzzzzlgqyvllzzbzzzkz",
"bzzzkzkkzzzzzzzzbbbbbMNVNbzbbzgfsfflzzMbzzzk",
"bzzzzzkkkkkjlzzzbbbbzMNVBMzzzlhfsdfglkcCzzzk",
"bzzzzzzzzzllglxzbbzzzbNVBMzkjufddddfhlcCNbzz",
"zbzzzzzzzzlgggxzbbbzzbNNBnkut0qfddddfhcCNMbz",
"zzzzzzzzbclgfhlxzbzzzzNNMxpi,,0qqsssdfxcMbbb",
"zzzzzzzbMNblqshhlzzzbnMnxp8<<,<00qqsssuujkbb",
"zzzzzzzbNVMgqqsfvvkzbnnxp4,,<<,,,<0sss0tijzb",
"zzzzzzbbVVChqqsffglzbmka7>:,,,,>,<000q08ijzb",
"zzzzzzzbVVCldqssffgxbkre*-.:,,,>,<<0<<iukxzb",
"zzzzzzzbBVchdqsddfglkae&o .:>>>>,,0<,48jkzzz",
"zzzzzzzzxxxfqdsdddsvp8eXX>:....>>,,,>,8pjxzb",
"zzzzzzzzpit0qqsddds7>>,,0,,>.  ..>,,>,<ygjkb",
"zzzzzkkvtw>,0qqddd1,::,<00<>.  .X>,,,w<1yjkb",
"bzzzkjpt<>>,<<qssds1ww<,,,>:...>>,00q0qqflxn",
"bbbzku4,>>>>><<<1sssqqw,X..X>>>>,qssssdfhlxn",
"bzbzj8e>:>:::,,<qqqy0w>o. .X>>,,0qsddfqyygkx",
"bzzzkr*X......><000te*@Oo.X>>,,00qqsdsq0tiii",
"zzbzkr;&oo. ..>,00w2&@##$X>>>,,010qqsq0w2444",
"MMMMxar=....:,,<0q0,*@##+-*XX>>,,,,<0w,>>448",
"VBNbzkpi,>>><<qqssq0wX@###+  ..::,>>>>>>489v",
"VVBMbkju,>,<<qqsssqq0>oOO#O   ..X>>>XX>wtujz",
"VVBMbk95<,,<<<qssqqq0<>oO&oo..:>:>>>,,w0vjzz",
"BVBMx952::>>,<0qqqq000ww>:>X:>,,,,,w0qsfflzz",
"NMMmk5- .:>>,<<00qqqqqqq0,>>>,<<0<wqqddffljk",
"MMxa62  .::,,<<<qqqsqqqs0,,>>,<q0qqqdfddsvv8",
"Mma3&$   ..,<<<<qssssssq0,>:>,<<qqsfsdfs1<44",
"bk9=$o ....:,<<<<qssqqqt0>::>>,,<00qqqqq1,>X",
"zz92ooX:::::::::<qq<www2XX.....:>>>ww00ww2*&",
"zk95:X>>>::..  .,<<<w>&@oo        oX2>>>X*=*",
"bzj955:::,>:. ..><<<<,XoooOOOoO O O o****eer",
"Mbkj95::::>>::::,<qq000,X@++@O      &&o&*eap",
"MMbm96. :::>>>,,<<qqssq02$##@@Oo   O@@@&eaxz",
"NMm965  .::>,,,,,<<0qsq<,*$@@@@&oooO@@@*epxz",
"VNm;%%   ..:>,<<,,,<0q00,>*o+@@=&&&%@%-27pzz",
"VMa=##O    .>><,,>:,<<0w,2:*--;;;e;===55ijkz",
"BMa%###+  ...:::X..>,>w****6rraaaaaaa6apjjzz",
"NMa6%###O         .X>>*--%=6kmnnmmmxkkkkkzzz",
"CMar;%%#OO  $$$$+$ .-2336=69bMMMMMzzbzzbzzzz",
"bnmmar=+OO+$$$$$$%$--56a969kzbMMczzzzzbbbzzz",
"kmMBCa6-$++$%%%%%%%%=3akkkkzzzbzbzzzzzcbbbzz",
"kzmVCm3%$O+%%%%%%%%%=epbzzzzzzzzzzzzzzzzzzzz"
};
