/* XPM */
static char *exit[] = {
/* columns rows colors chars-per-pixel */
"44 44 82 1 ",
"  c #3E753A",
". c #40463E",
"X c #564931",
"o c #684F2A",
"O c #6D542C",
"+ c #74582D",
"@ c #6B5B3C",
"# c #765C33",
"$ c #7D6133",
"% c #2E444C",
"& c #35474C",
"* c #384C54",
"= c #3C525A",
"- c #37546B",
"; c #365775",
": c #444C45",
"> c #57554C",
", c #44555A",
"< c #525553",
"1 c #6C5F44",
"2 c #5A6259",
"3 c #7B6B49",
"4 c #6A6B59",
"5 c #796C50",
"6 c #7F7357",
"7 c #445866",
"8 c #4B656C",
"9 c #50686F",
"0 c #4D6871",
"q c #516B73",
"w c #55737C",
"e c #6A776E",
"r c #717D72",
"t c #846737",
"y c #866D43",
"u c #8B7548",
"i c #947949",
"p c #836F53",
"a c #83745C",
"s c #4B953C",
"d c #51993F",
"f c #4D8B40",
"g c #558B46",
"h c #589A44",
"j c #649D4B",
"k c #799D58",
"l c #5FA148",
"z c #67A44D",
"x c #6DA751",
"c c #72A854",
"v c #9E854F",
"b c #9D8755",
"n c #829E5D",
"m c #A3834D",
"M c #A68B55",
"N c #B18E58",
"B c #AB915A",
"V c #81A55E",
"C c #8D9F62",
"Z c #A68F60",
"A c #A99369",
"S c #B39464",
"D c #AC9570",
"F c #B89D72",
"G c #8DA666",
"H c #95A86A",
"J c #9BAD71",
"K c #A9A66D",
"L c #BBA16D",
"P c #ABA878",
"I c #B8A878",
"U c #C3A87A",
"Y c #345B87",
"T c #39608B",
"R c #386291",
"E c #5C7981",
"W c #6C8180",
"Q c #6B8990",
"! c #B9AC82",
"~ c #BDB080",
"^ c #C5AD84",
"/ c #C9B187",
/* pixels */
"ccccxcccccccccccccccxcccccccccccccccccccccxc",
"cccccccccccccccchzccxxxxxxxxxccccccccczxcccc",
"ccczzccccccxxxxcVGVVPPPGccckccxxccxxcchfcccc",
"ccczzccczhhkJIKIUUFLLLLIUUUUUPIPPPkczccxczzc",
"czccccchCFKFSiuvmuiuiuvuiuBviiiZUUU^jcccczxc",
"cjxccchk^iy#tOto$tO+to$O#t#Ott++ttuLGlcccccc",
"ccccczjLi#ttu3i@yu@3v33$uu@@u3y3i+OyFjxccccx",
"ccccchHiO4krE8w7wW8EQ888qw,9www0E4pttChccccc",
"ccccxhA#e0wwq,q*8==7w,7,89%=9w8=gTEr@Zhxccxc",
"xccczcZ2E,q7*==&&&&&&&&&**&**,8=,*0E<Zjzcccc",
"czxczGS:w***&&&&&&-------***&&&&&&=,%DGzcccc",
"xzcczGN:=%**-;-;-;TTRRRTTTT;-;---;*%*DGzcccc",
"cccczGS:%-YTTRTTRTTTTTTTTTTTTRRTRRT-%DGzcccc",
"ccccxJS.;RTTTTTTTTTTTTTTTTTTTTTTTTTT*DJxcccc",
"cxcczJS7RYTTTTTTTTTTTTTTTTTTTTTTTTYR;AJxcccc",
"cccczJS7RRTTTTTTTTTTTTTTTTTTTTTTTTRR;AJxcczc",
"cccczJS7RTTTTTTTTTTTTTTTTTTTTTTTYYER;DHzcxjc",
"ccccj!S7RTTTTTTTTTTTTTTTTTTTTTTTRYYR;AGzcccc",
"cccxj!Z7RTTTTTTTTTTTTTTTTTTTTTTTRYYR;AGlcccc",
"zzccj!S7RTTTTTTTTTTTTTTTTTTTTTTTRYRE;A!Dxccc",
"xzccjPS7RTTTTTTTTTTTTTTTTTTTTTTTTTTR;Z^Gxcxc",
"ccccz!S7RYTTTTTTTTTTTTTTTTTTTTTTTTTT;bUCzccc",
"cccczIB7RTTTTTTTTTTTTTTTTTTTTTTTYTYR;Z^cxccc",
"cccczPS-RTTTTTTTTTTTTTTTTTTTTTTTRRYR;A!zcccc",
"cccczGS7RTTTTTYTTTTTTTTTTTYTTTTTTTTR;AIxcccc",
"czzcxGS7RTTTTTTTTTTTTTTTTTTTTTTTTTTT;A^cjgcc",
"cxzcjJS7RTTTTTTTTTTTTTTTTTTTTTTTTTTT;AGlh<jc",
"ccccxJS7RTTTTTTTTTTTTTYTTTTTTTTTTTTR;AGzcxxc",
"ccccxJA7RTTTTTTTTTTTTTTTTTTTTTTTTTTR;AJxcccc",
"cccczJS7RTTTTTTTTTTTTTTTTTTTTTTTTTTR;KJxcccc",
"cxcxH!B7RTTTTTTTTTTTTTTTTTTTTTTTTTTR;Z/Hxccc",
"ccccJ^M7RYTTTTTTTTTTTTTTTTTTTTTTTTTR;b/Pcxxc",
"cccxcIM7RTTTTTRTTTTTTTTTTTTTTTTTTTTR;bU!zjxc",
"cccccIM7RTYTTTTTTTTTTTTTTTTTTTTTTTTT;bUPzccc",
"cccczHN7RRRTTTTTTTTYTTTTTTTTTTTTTTTTYb^Pzccc",
"ccccxnUi<;RRETTTTTTTTTTTETTTTTRTTTRR7M^Pjccc",
"xcccchjLi+<YYYYYRTYYYTYTYYYYYYYYYY;>mI!Pzccc",
"cccccxskKUNy456a1X56333a64p656a533yMS!/Gzccc",
"ccxcccchsnPII!!/ISU///U//IK^^^^UIUU^^ULhcccc",
"cccccxccjdhhjGccHJHGGGHVGGhkccc!^PPKPPklccxc",
"cxcccxcccccccccxzzxhzxxxxxcxccccczzzzzcj fzc",
"ccccccccccccccccxzxccccccccccccxcccccccchjcc",
"ccccccxccccccccccxcccczzcccccccccccccccccccc",
"ccxccccccccccccxcccxcczxccccccxccccccccccccc"
};
